<svg xmlns="http://www.w3.org/2000/svg" version="1.1" xmlns:xlink="http://www.w3.org/1999/xlink" xmlns:svgjs="http://svgjs.dev/svgjs" width="1500" height="469" viewBox="0 0 1500 469"><g transform="matrix(1,0,0,1,-0.9090909090906507,-0.07095214059887667)"><svg viewBox="0 0 396 124" data-background-color="#ffffff" preserveAspectRatio="xMidYMid meet" height="469" width="1500" xmlns="http://www.w3.org/2000/svg" xmlns:xlink="http://www.w3.org/1999/xlink"><g id="tight-bounds" transform="matrix(1,0,0,1,0.23999999999992383,0.018759201352366972)"><svg viewBox="0 0 395.5199999999999 123.96248159729527" height="123.96248159729527" width="395.5199999999999"><g><svg viewBox="0 0 571.0198637159999 178.96702909482377" height="123.96248159729527" width="395.5199999999999"><g><svg viewBox="0 0 395.52 178.96702909482377" height="178.96702909482377" width="395.52"><g id="textblocktransform"><svg viewBox="0 0 395.52 178.96702909482377" height="178.96702909482377" width="395.52" id="textblock"><g><svg viewBox="0 0 395.52 121.28235104967601" height="121.28235104967601" width="395.52"><rect width="395.52" height="121.28235104967601" x="0" y="0" opacity="1" fill="#bb84e8" data-fill-palette-color="tertiary"></rect><g transform="matrix(1,0,0,1,23.461705032,23.46170503200001)"><svg width="348.596589936" viewBox="2.05 -37 223.13 47.6" height="74.358940985676" data-palette-color="#ffffff"><path d="M12.3 0.6L12.3 0.6Q7.5 0.6 4.78-2.55 2.05-5.7 2.05-12.9L2.05-12.9Q2.05-20.1 4.78-23.25 7.5-26.4 12.3-26.4L12.3-26.4Q15.95-26.4 18.13-24.73 20.3-23.05 21.3-20.45L21.3-20.45 18.15-18.85Q17.5-20.85 16.1-21.93 14.7-23 12.3-23L12.3-23Q9.15-23 7.65-21.15 6.15-19.3 6.15-15.5L6.15-15.5 6.15-10.3Q6.15-6.5 7.65-4.65 9.15-2.8 12.3-2.8L12.3-2.8Q14.8-2.8 16.32-3.9 17.85-5 18.75-7.25L18.75-7.25 21.55-5.3Q20.4-2.6 18.07-1 15.75 0.6 12.3 0.6ZM26.5 0L26.5-37 30.3-37 30.3-21.6 30.8-21.6Q31.55-24 33.12-25.2 34.7-26.4 37.4-26.4L37.4-26.4Q40.85-26.4 42.82-24.05 44.8-21.7 44.8-16.8L44.8-16.8 44.8 0 41 0 41-16.55Q41-19.65 39.72-21.3 38.45-22.95 35.8-22.95L35.8-22.95Q33.5-22.95 31.9-21.55 30.3-20.15 30.3-17.6L30.3-17.6 30.3 0 26.5 0ZM60.95 0.6L60.95 0.6Q58.7 0.6 56.75-0.15 54.8-0.9 53.4-2.55 52-4.2 51.2-6.75 50.4-9.3 50.4-12.9L50.4-12.9Q50.4-16.5 51.2-19.05 52-21.6 53.4-23.25 54.8-24.9 56.75-25.65 58.7-26.4 60.95-26.4L60.95-26.4Q63.2-26.4 65.07-25.65 66.95-24.9 68.25-23.25 69.55-21.6 70.27-19.05 71-16.5 71-12.9L71-12.9 71-11.95 54.45-11.95 54.45-10.3Q54.45-6.5 56.17-4.63 57.9-2.75 60.95-2.75L60.95-2.75Q63.55-2.75 65.2-3.88 66.84-5 67.8-7.25L67.8-7.25 70.4-5.35Q69.2-2.7 66.87-1.05 64.55 0.6 60.95 0.6ZM60.95-23.2L60.95-23.2Q57.85-23.2 56.15-21.25 54.45-19.3 54.45-15.5L54.45-15.5 54.45-14.85 66.95-14.85 66.95-15.5Q66.95-23.2 60.95-23.2ZM95.89 0L93.19 0Q89.49 0 89.49-3.7L89.49-3.7 89.49-4.2 88.99-4.2Q88.34-1.85 86.62-0.63 84.89 0.6 82.49 0.6L82.49 0.6Q78.74 0.6 76.89-1.3 75.04-3.2 75.04-6.9L75.04-6.9Q75.04-10.5 77.42-12.6 79.79-14.7 84.84-14.7L84.84-14.7 89.49-14.7 89.49-17.55Q89.49-20.4 88.22-21.75 86.94-23.1 84.19-23.1L84.19-23.1Q81.94-23.1 80.57-22.13 79.19-21.15 78.19-19.3L78.19-19.3 75.94-21.4Q76.94-23.5 79.14-24.93 81.34-26.35 84.34-26.35L84.34-26.35Q88.74-26.35 91.02-24.23 93.29-22.1 93.29-17.95L93.29-17.95 93.29-3.35 95.89-3.35 95.89 0ZM83.44-2.7L83.44-2.7Q84.74-2.7 85.87-3.15 86.99-3.6 87.79-4.33 88.59-5.05 89.04-5.98 89.49-6.9 89.49-7.9L89.49-7.9 89.49-11.8 84.74-11.8Q81.74-11.8 80.37-10.8 78.99-9.8 78.99-7.9L78.99-7.9 78.99-6.5Q78.99-4.55 80.19-3.63 81.39-2.7 83.44-2.7ZM101.04 10L101.04-25.8 104.84-25.8 104.84-21.6 105.34-21.6Q106.09-24.15 107.77-25.28 109.44-26.4 111.84-26.4L111.84-26.4Q114.14-26.4 115.89-25.45 117.64-24.5 118.84-22.75 120.04-21 120.64-18.5 121.24-16 121.24-12.9L121.24-12.9Q121.24-9.8 120.64-7.3 120.04-4.8 118.84-3.05 117.64-1.3 115.89-0.35 114.14 0.6 111.84 0.6L111.84 0.6Q109.44 0.6 107.77-0.53 106.09-1.65 105.34-4.2L105.34-4.2 104.84-4.2 104.84 10 101.04 10ZM110.69-2.8L110.69-2.8Q113.84-2.8 115.49-4.78 117.14-6.75 117.14-10.3L117.14-10.3 117.14-15.5Q117.14-19.05 115.49-21.03 113.84-23 110.69-23L110.69-23Q109.49-23 108.42-22.65 107.34-22.3 106.57-21.65 105.79-21 105.32-20.1 104.84-19.2 104.84-18.1L104.84-18.1 104.84-7.7Q104.84-6.6 105.32-5.7 105.79-4.8 106.57-4.15 107.34-3.5 108.42-3.15 109.49-2.8 110.69-2.8ZM128.39 0L128.39-22.45 124.64-22.45 124.64-25.8 128.39-25.8 128.39-32.1Q128.39-34.65 129.56-35.83 130.74-37 133.29-37L133.29-37 137.14-37 137.14-33.65 132.19-33.65 132.19-25.8 137.14-25.8 137.14-22.45 132.19-22.45 132.19 0 128.39 0ZM148.89 0L145.74 0Q143.69 0 142.76-0.93 141.84-1.85 141.84-3.9L141.84-3.9 141.84-37 145.64-37 145.64-3.35 148.89-3.35 148.89 0ZM156.08-32.05L156.08-32.05Q153.73-32.05 153.73-34.1L153.73-34.1 153.73-34.9Q153.73-36.95 156.08-36.95L156.08-36.95Q158.43-36.95 158.43-34.9L158.43-34.9 158.43-34.1Q158.43-32.05 156.08-32.05ZM154.18 0L154.18-25.8 157.98-25.8 157.98 0 154.18 0ZM185.28 2.9L185.28 2.9Q185.28 7 182.51 8.8 179.73 10.6 173.93 10.6L173.93 10.6Q168.38 10.6 166.01 8.95 163.63 7.3 163.63 4.2L163.63 4.2Q163.63 2.1 164.68 0.9 165.73-0.3 167.38-0.6L167.38-0.6 167.38-1.3Q166.38-1.85 165.81-2.73 165.23-3.6 165.23-4.8L165.23-4.8Q165.23-6.4 166.16-7.55 167.08-8.7 169.18-8.95L169.18-8.95 169.18-9.5Q167.18-10.5 166.06-12.48 164.93-14.45 164.93-17.45L164.93-17.45Q164.93-21.85 167.33-24.1 169.73-26.35 173.78-26.35L173.78-26.35Q176.18-26.35 178.13-25.5L178.13-25.5 178.13-26.4Q178.13-27.85 178.78-28.5 179.43-29.15 180.88-29.15L180.88-29.15 184.33-29.15 184.33-25.8 179.88-25.8 179.88-24.4Q181.18-23.25 181.91-21.55 182.63-19.85 182.63-17.45L182.63-17.45Q182.63-13.05 180.23-10.8 177.83-8.55 173.78-8.55L173.78-8.55Q172.58-8.55 171.33-8.8L171.33-8.8Q169.93-8.55 169.21-7.68 168.48-6.8 168.48-5.9L168.48-5.9Q168.48-4.9 169.18-4.4 169.88-3.9 171.48-3.9L171.48-3.9 177.13-3.9Q181.48-3.9 183.38-2.15 185.28-0.4 185.28 2.9ZM181.73 3.15L181.73 3.15Q181.73 1.45 180.68 0.58 179.63-0.3 177.08-0.3L177.08-0.3 169.23-0.3Q168.08 0.25 167.61 1.1 167.13 1.95 167.13 3.25L167.13 3.25Q167.13 5.2 168.33 6.33 169.53 7.45 172.18 7.45L172.18 7.45 175.48 7.45Q178.58 7.45 180.16 6.43 181.73 5.4 181.73 3.15ZM173.78-11.65L173.78-11.65Q176.13-11.65 177.43-12.85 178.73-14.05 178.73-16.55L178.73-16.55 178.73-18.4Q178.73-20.9 177.43-22.1 176.13-23.3 173.78-23.3L173.78-23.3Q171.43-23.3 170.13-22.1 168.83-20.9 168.83-18.4L168.83-18.4 168.83-16.55Q168.83-14.05 170.13-12.85 171.43-11.65 173.78-11.65ZM189.43 0L189.43-37 193.23-37 193.23-21.6 193.73-21.6Q194.48-24 196.05-25.2 197.63-26.4 200.33-26.4L200.33-26.4Q203.78-26.4 205.75-24.05 207.73-21.7 207.73-16.8L207.73-16.8 207.73 0 203.93 0 203.93-16.55Q203.93-19.65 202.65-21.3 201.38-22.95 198.73-22.95L198.73-22.95Q196.43-22.95 194.83-21.55 193.23-20.15 193.23-17.6L193.23-17.6 193.23 0 189.43 0ZM224.93 0L220.28 0Q218.23 0 217.3-0.93 216.38-1.85 216.38-3.9L216.38-3.9 216.38-22.45 212.58-22.45 212.58-25.8 214.83-25.8Q215.98-25.8 216.35-26.38 216.73-26.95 216.73-28.1L216.73-28.1 216.73-32.9 220.18-32.9 220.18-25.8 225.18-25.8 225.18-22.45 220.18-22.45 220.18-3.35 224.93-3.35 224.93 0Z" opacity="1" transform="matrix(1,0,0,1,0,0)" fill="#ffffff" class="wordmark-text-0" data-fill-palette-color="quaternary" id="text-0"></path></svg></g></svg></g><g transform="matrix(1,0,0,1,0,133.013203565676)"><svg viewBox="0 0 395.52 45.953825529147764" height="45.953825529147764" width="395.52"><g transform="matrix(1,0,0,1,0,0)"><svg width="395.52" viewBox="1.8 -35.2 387.65999999999997 44.75" height="45.953825529147764" data-palette-color="#35185a"><path d="M13.6-35.2Q15.4-35.2 17.5-34.75L17.5-34.75 17.2-31.65 16.9-31.4Q15.1-32.3 13.25-32.3L13.25-32.3Q11.3-32.3 10.25-31.08 9.2-29.85 9.15-27.45L9.15-27.45 9.1-22.85 15.1-22.85 15.25-22.55 15-20.2 9.05-20.2 8.95-10.05 9.2 0 5.25 0 5.55-9.75 5.45-20.2 2-20.2 1.8-20.5 2.05-22.85 5.45-22.85 5.4-26.85Q5.35-30.9 7.5-33.05 9.65-35.2 13.6-35.2L13.6-35.2ZM46.32-35.1L46.02-10.05 46.27 0 42.32 0 42.62-9.75 42.37-34.75 46.32-35.1ZM77.59-23.05L78.34-20.1 83.84-4.3 84.19-4.3 89.89-19.75 90.64-22.9 94.19-22.9 85.99-0.8Q84.74 2.6 83.31 4.55 81.89 6.5 79.86 7.63 77.84 8.75 74.54 9.55L74.54 9.55 74.19 9.55Q73.14 8.5 72.54 7.2L72.54 7.2 72.64 6.75Q76.44 6 78.46 4.63 80.49 3.25 82.24 0L82.24 0 73.84-22.8 77.59-23.05ZM161.17-23.3Q162.72-23.3 164.4-22.93 166.07-22.55 167.32-21.95L167.32-21.95 166.62-18.5 166.17-18.35Q163.57-20.05 161.02-20.05L161.02-20.05Q158.07-20.05 156.42-17.8 154.77-15.55 154.77-11.5L154.77-11.5Q154.77-7.45 156.5-5.13 158.22-2.8 161.27-2.8L161.27-2.8Q162.62-2.8 164.1-3.25 165.57-3.7 166.87-4.5L166.87-4.5 167.32-4.25 166.87-0.9Q163.82 0.4 160.77 0.4L160.77 0.4Q156.22 0.4 153.62-2.73 151.02-5.85 151.02-11.3L151.02-11.3Q151.02-16.85 153.75-20.08 156.47-23.3 161.17-23.3L161.17-23.3ZM209.54 0L209.79-15.55Q209.84-17.6 208.84-18.75 207.84-19.9 205.89-19.9L205.89-19.9Q202.59-19.9 199.14-16.35L199.14-16.35 199.04-10.05 199.29 0 195.34 0 195.64-9.75 195.39-34.75 199.34-35.1 199.14-19.65 199.44-19.65Q202.54-22.4 205.79-23.2L205.79-23.2Q209.59-23.2 211.54-21.45 213.49-19.7 213.44-16.45L213.44-16.45 213.34-9.95 213.54 0 209.54 0ZM260.26-11.65L245.91-11.6 245.91-11.5Q245.91-7.3 247.81-5.05 249.71-2.8 253.21-2.8L253.21-2.8Q254.96-2.8 256.71-3.38 258.46-3.95 259.91-5L259.91-5 260.31-4.7 259.71-1.3Q256.21 0.4 252.71 0.4L252.71 0.4Q247.81 0.4 245.01-2.73 242.21-5.85 242.21-11.3L242.21-11.3Q242.21-16.8 245.01-20.05 247.81-23.3 252.56-23.3L252.56-23.3Q256.56-23.3 258.76-21.03 260.96-18.75 260.96-14.7L260.96-14.7Q260.96-13.35 260.76-12.15L260.76-12.15 260.26-11.65ZM252.56-20.5Q250.06-20.5 248.38-18.88 246.71-17.25 246.16-14.3L246.16-14.3 257.21-14.5 257.31-15.2Q257.31-17.75 256.08-19.13 254.86-20.5 252.56-20.5L252.56-20.5ZM297.67-23.3Q300.92-23.3 302.8-21.7 304.67-20.1 304.67-17.3L304.67-17.3Q304.67-16.45 304.37-11.15L304.37-11.15Q304.07-5.85 304.07-4.95L304.07-4.95Q304.07-3.85 304.42-3.43 304.77-3 305.62-3L305.62-3Q306.37-3 307.32-3.3L307.32-3.3 307.72-2.95 307.32-0.7Q305.87 0.15 304.47 0.3L304.47 0.3Q302.92 0.15 302-0.8 301.07-1.75 301.02-3.4L301.02-3.4 300.67-3.4Q297.97-0.65 295.32 0.35L295.32 0.35Q291.97 0.35 290.1-1.33 288.22-3 288.22-5.9L288.22-5.9Q288.22-8.1 289.4-9.4 290.57-10.7 292.87-11.25L292.87-11.25 300.97-13.15 301.02-16.4Q301.02-18.35 300-19.4 298.97-20.45 297.07-20.45L297.07-20.45Q295.37-20.45 293.67-19.65 291.97-18.85 290.02-17.15L290.02-17.15 289.62-17.35 289.12-20.2Q293.27-23.3 297.67-23.3L297.67-23.3ZM300.92-10.6L293.67-8.85Q292.67-8.55 292.22-8.03 291.77-7.5 291.77-6.45L291.77-6.45Q291.77-4.8 292.7-3.88 293.62-2.95 295.17-2.95L295.17-2.95Q297.92-2.95 300.77-6.5L300.77-6.5 300.92-10.6ZM346.59-23.15Q350.89-23.15 353.19-20.3 355.49-17.45 355.49-12.15L355.49-12.15Q355.49-6.15 352.59-2.88 349.69 0.4 344.34 0.4L344.34 0.4Q342.24 0.4 339.99-0.05L339.99-0.05 340.09 9.25 336.19 9.25 336.44-9.7 336.19-22.65 339.99-23 339.94-19.75 340.29-19.75Q342.04-21.2 343.44-21.95 344.84-22.7 346.59-23.15L346.59-23.15ZM344.84-2.5Q348.14-2.5 349.94-4.8 351.74-7.1 351.74-11.35L351.74-11.35Q351.74-15.5 350.32-17.7 348.89-19.9 346.24-19.9L346.24-19.9Q344.69-19.9 343.17-19.05 341.64-18.2 339.94-16.4L339.94-16.4 339.89-10.05 339.94-3.8Q342.39-2.5 344.84-2.5L344.84-2.5ZM388.96-33L389.46-32.5 388.31-10.9 385.96-10.65 385.56-11.1 385.51-32.35 385.91-32.85 388.96-33ZM386.61-4.4Q387.61-4.4 388.18-3.8 388.76-3.2 388.76-2.15L388.76-2.15Q388.76-1.05 388.13-0.4 387.51 0.25 386.46 0.25L386.46 0.25Q385.36 0.25 384.78-0.35 384.21-0.95 384.21-2.05L384.21-2.05Q384.21-3.1 384.86-3.75 385.51-4.4 386.61-4.4L386.61-4.4Z" opacity="1" transform="matrix(1,0,0,1,0,0)" fill="#35185a" class="slogan-text-1" data-fill-palette-color="secondary" id="text-1"></path></svg></g></svg></g></svg></g></svg></g><g transform="matrix(1,0,0,1,407.250852516,68.59490445046681)"><svg viewBox="0 0 163.7690112 41.77722019389015" height="41.77722019389015" width="163.7690112"><g><svg xmlns="http://www.w3.org/2000/svg" xmlns:xlink="http://www.w3.org/1999/xlink" version="1.1" x="0" y="0" viewBox="1.7500000000000002 38.638 96.5 24.616999999999997" enable-background="new 0 0 100 100" xml:space="preserve" height="41.77722019389015" width="163.7690112" class="icon-icon-0" data-fill-palette-color="accent" id="icon-0"><path d="M88.652 49.072H63.248l-7.186-4.925h-7.195l2.92 4.925H35.039L29.07 38.638h-5.513v17.525c0 3.917 3.175 7.092 7.091 7.092h58.004c3.916 0 9.598-3.175 9.598-7.092C98.25 52.247 92.568 49.072 88.652 49.072zM92.59 55.718h-7.094c-0.361 0-0.657-0.297-0.657-0.657v-2.824c7.86 0.184 8.301 2.833 8.301 2.833C93.199 55.426 92.951 55.718 92.59 55.718z" fill="#bb84e8" data-fill-palette-color="accent"></path><path d="M18.543 49.693H3.003c-0.692 0-1.253 0.561-1.253 1.253s0.561 1.253 1.253 1.253h15.54c0.692 0 1.253-0.561 1.253-1.253S19.236 49.693 18.543 49.693z" fill="#bb84e8" data-fill-palette-color="accent"></path><path d="M18.543 58.994H3.003c-0.692 0-1.253 0.561-1.253 1.253S2.311 61.5 3.003 61.5h15.54c0.692 0 1.253-0.561 1.253-1.253S19.236 58.994 18.543 58.994z" fill="#bb84e8" data-fill-palette-color="accent"></path><path d="M18.543 54.344h-6.517c-0.692 0-1.253 0.561-1.253 1.253s0.561 1.253 1.253 1.253h6.517c0.692 0 1.253-0.561 1.253-1.253S19.236 54.344 18.543 54.344z" fill="#bb84e8" data-fill-palette-color="accent"></path></svg></g></svg></g></svg></g><defs></defs></svg><rect width="395.5199999999999" height="123.96248159729527" fill="none" stroke="none" visibility="hidden"></rect></g></svg></g></svg>